<svg xmlns="http://www.w3.org/2000/svg" viewBox="0 0 40 40"><defs><style>.cls-1{fill:#0a0a0a;stroke:#fff;stroke-width:2px;}.cls-2{fill:#fff;}</style></defs><g id="Layer_2" data-name="Layer 2"><g id="Layer_1-2" data-name="Layer 1"><circle class="cls-1" cx="20" cy="20" r="19"/><path class="cls-2" d="M21.21,17.33a1.27,1.27,0,0,0-1.41-1C18.37,16.31,18,18,18,19.48a2.84,2.84,0,0,1,2.39-1c1.71,0,3.3,1.12,3.3,3.68a3.71,3.71,0,0,1-3.88,4c-3.15,0-4.08-2.25-4.08-5.51s1-6.09,4.23-6.09a3.15,3.15,0,0,1,3.5,2.75Zm.16,4.94c0-1.34-.59-2-1.65-2s-1.65.6-1.65,1.85.4,2.36,1.67,2.36C20.77,24.44,21.37,23.67,21.37,22.27Z"/></g></g></svg>